<svg xmlns="http://www.w3.org/2000/svg" style="display: none;"><symbol id="ice-cream" viewBox="0 0 297 297"><title>ice-cream</title><path d="M250.304,101.804c0-22.556-16.045-41.434-37.322-45.818C208.527,24.387,181.309,0,148.5,0S88.473,24.387,84.019,55.985 c-21.277,4.385-37.322,23.263-37.322,45.818c0,22.328,15.727,41.053,36.685,45.682v11.011c0,10.851,6.492,20.208,15.795,24.407 l39.86,107.511c1.467,3.959,5.243,6.586,9.465,6.586c4.223,0,7.998-2.627,9.465-6.586l52.791-142.394 C233.129,144.534,250.304,125.138,250.304,101.804z M148.501,257.864l-27.335-73.728c11.028-3.31,19.089-13.55,19.089-25.641V148 c2.714,0.386,5.475,0.582,8.246,0.582c10.651,0,20.777-2.839,28.922-7.967c3.819,2.584,7.978,4.572,12.354,5.916L148.501,257.864z M203.525,128.392c-7.083,0-13.754-2.773-18.786-7.809c-3.909-3.908-10.235-3.949-14.191-0.089 c-5.066,4.945-13.309,7.897-22.047,7.897c-5.074,0-10.026-0.986-14.32-2.851c-3.119-1.354-6.714-1.046-9.559,0.819 c-2.844,1.866-4.558,5.039-4.558,8.441v23.694c0,3.566-3.013,6.579-6.579,6.579h-3.335c-3.566,0-6.579-3.013-6.579-6.58 l-0.001-20.01c0-5.575-4.521-10.094-10.096-10.094c-14.66,0-26.588-11.928-26.588-26.588c0-14.661,11.928-26.588,26.588-26.588 c5.575,0,10.096-4.521,10.096-10.096c0-24.774,20.155-44.93,44.93-44.93s44.93,20.155,44.93,44.93 c0,5.575,4.52,10.096,10.096,10.096c14.66,0,26.588,11.927,26.588,26.588C230.113,116.464,218.186,128.392,203.525,128.392z" fill="#000000"/></symbol></svg>